<?xml version="1.0" encoding="utf-8"?>
<!-- Generator: Adobe Illustrator 27.0.0, SVG Export Plug-In . SVG Version: 6.00 Build 0)  -->
<svg version="1.1" id="Layer_1" xmlns="http://www.w3.org/2000/svg" xmlns:xlink="http://www.w3.org/1999/xlink" x="0px" y="0px"
	 viewBox="0 0 80 80" style="enable-background:new 0 0 80 80;" xml:space="preserve">
<style type="text/css">
	.st0{fill:none;stroke:#010101;stroke-miterlimit:10;}
	.st1{fill:#010101;}
	.st2{fill:#020202;}
</style>
<g>
	<g>
		<path class="st0" d="M50,67H31c-4,0-7.2-3.2-7.2-7.2V21.1c0-4,3.2-7.2,7.2-7.2h19c4,0,7.2,3.2,7.2,7.2v38.7C57.2,63.8,54,67,50,67
			z"/>
		<path class="st1" d="M46.1,17.2H34.4c-1.3,0-2.3-1-2.3-2.3v-1.1h16.3v1.1C48.4,16.2,47.3,17.2,46.1,17.2z"/>
		<path class="st1" d="M49,61.8H32c-0.8,0-1.4-0.6-1.4-1.4v-0.5c0-0.8,0.6-1.4,1.4-1.4h16.9c0.8,0,1.4,0.6,1.4,1.4v0.5
			C50.4,61.2,49.7,61.8,49,61.8z"/>
	</g>
	<path class="st2" d="M40.5,43.8c-2.1,0-3.8-1.7-3.8-3.8s1.7-3.8,3.8-3.8s3.8,1.7,3.8,3.8S42.6,43.8,40.5,43.8z M46.2,47.6
		c0-1.6-1.3-2.8-2.8-2.8h-5.7c-1.6,0-2.8,1.3-2.8,2.8v2.8h11.4C46.2,50.4,46.2,47.6,46.2,47.6z M46.2,35.2c-2.1,0-3.8-1.7-3.8-3.8
		s1.7-3.8,3.8-3.8s3.8,1.7,3.8,3.8S48.3,35.2,46.2,35.2z M34.8,35.2c-2.1,0-3.8-1.7-3.8-3.8s1.7-3.8,3.8-3.8s3.8,1.7,3.8,3.8
		S36.9,35.2,34.8,35.2z M34.8,40c0-1.4,0.5-2.8,1.5-3.8H32c-1.6,0-2.9,1.3-2.9,2.8v2.8h6C34.9,41.2,34.8,40.6,34.8,40z M45.9,41.9h6
		v-2.8c0-1.6-1.3-2.8-2.8-2.8h-4.3C46.1,37.7,46.6,39.9,45.9,41.9L45.9,41.9z"/>
</g>
</svg>
