<?xml version="1.0" encoding="utf-8"?>
<!-- Generator: Adobe Illustrator 27.0.0, SVG Export Plug-In . SVG Version: 6.00 Build 0)  -->
<svg version="1.1" id="Layer_1" xmlns="http://www.w3.org/2000/svg" xmlns:xlink="http://www.w3.org/1999/xlink" x="0px" y="0px"
	 viewBox="0 0 80 80" style="enable-background:new 0 0 80 80;" xml:space="preserve">
<style type="text/css">
	.st0{fill:none;stroke:#FFFFFF;stroke-width:2;stroke-miterlimit:10;}
	.st1{fill:none;stroke:#FFFFFF;stroke-width:0.75;stroke-miterlimit:10;}
	.st2{fill:#FFFFFF;}
</style>
<path class="st0" d="M52.5,68.9h-24c-6.8,0-12.3-5.5-12.3-12.3V23.6c0-6.8,5.5-12.3,12.3-12.3h24c6.8,0,12.3,5.5,12.3,12.3v32.9
	C64.8,63.4,59.3,68.9,52.5,68.9z"/>
<g>
	<circle class="st1" cx="30.2" cy="37.5" r="2.6"/>
	<path class="st1" d="M30.2,41c-2.2,0-3.9,1.8-3.9,3.9c0,0.2,0.2,0.4,0.4,0.4h7c0.2,0,0.4-0.2,0.4-0.4C34.1,42.7,32.4,41,30.2,41z"
		/>
</g>
<g>
	<circle class="st1" cx="30.2" cy="20.9" r="2.6"/>
	<path class="st1" d="M30.2,24.4c-2.2,0-3.9,1.8-3.9,3.9c0,0.2,0.2,0.4,0.4,0.4h7c0.2,0,0.4-0.2,0.4-0.4
		C34.1,26.2,32.4,24.4,30.2,24.4z"/>
</g>
<g>
	<circle class="st1" cx="30.2" cy="53.4" r="2.6"/>
	<path class="st1" d="M30.2,56.9c-2.2,0-3.9,1.8-3.9,3.9c0,0.2,0.2,0.4,0.4,0.4h7c0.2,0,0.4-0.2,0.4-0.4
		C34.1,58.7,32.4,56.9,30.2,56.9z"/>
</g>
<path class="st2" d="M55.4,26.9H39.8c-0.8,0-1.5-0.7-1.5-1.5v-1.9c0-0.8,0.7-1.5,1.5-1.5h15.6c0.8,0,1.5,0.7,1.5,1.5v1.9
	C56.9,26.2,56.3,26.9,55.4,26.9z"/>
<path class="st2" d="M55.4,43.4H39.8c-0.8,0-1.5-0.7-1.5-1.5V40c0-0.8,0.7-1.5,1.5-1.5h15.6c0.8,0,1.5,0.7,1.5,1.5v1.9
	C56.9,42.8,56.3,43.4,55.4,43.4z"/>
<path class="st2" d="M55.4,60H39.8c-0.8,0-1.5-0.7-1.5-1.5v-1.9c0-0.8,0.7-1.5,1.5-1.5h15.6c0.8,0,1.5,0.7,1.5,1.5v1.9
	C56.9,59.3,56.3,60,55.4,60z"/>
</svg>
