<?xml version="1.0" encoding="utf-8"?>
<!-- Generator: Adobe Illustrator 27.0.0, SVG Export Plug-In . SVG Version: 6.00 Build 0)  -->
<svg version="1.1" id="Layer_1" xmlns="http://www.w3.org/2000/svg" xmlns:xlink="http://www.w3.org/1999/xlink" x="0px" y="0px"
	 viewBox="0 0 80 80" style="enable-background:new 0 0 80 80;" xml:space="preserve">
<style type="text/css">
	.st0{fill:none;stroke:#FFFFFF;stroke-miterlimit:10;}
	.st1{fill:#FFFFFF;}
	.st2{fill:none;stroke:#010101;stroke-miterlimit:10;}
</style>
<g>
	<g>
		<path class="st0" d="M36,64.6H20c-4,0-7.2-3.2-7.2-7.2V23.5c0-4,3.2-7.2,7.2-7.2h16c4,0,7.2,3.2,7.2,7.2v33.9
			C43.2,61.4,39.9,64.6,36,64.6z"/>
		<path class="st1" d="M32.8,19.3H22.6c-1.3,0-2.3-1-2.3-2.3v-0.8h14.8V17C35.1,18.2,34.1,19.3,32.8,19.3z"/>
		<path class="st1" d="M35.5,59.9H20.4c-0.8,0-1.4-0.6-1.4-1.4v-0.2c0-0.8,0.6-1.4,1.4-1.4h15.2c0.8,0,1.4,0.6,1.4,1.4v0.2
			C36.9,59.3,36.3,59.9,35.5,59.9z"/>
	</g>
	<path class="st1" d="M28,43.4c-1.9,0-3.5-1.5-3.5-3.5s1.5-3.5,3.5-3.5s3.5,1.5,3.5,3.5S29.9,43.4,28,43.4z M33.1,46.9
		c0-1.4-1.2-2.6-2.6-2.6h-5.2c-1.4,0-2.6,1.2-2.6,2.6v2.6h10.4V46.9z M33.1,35.7c-1.9,0-3.5-1.5-3.5-3.5s1.5-3.5,3.5-3.5
		s3.5,1.6,3.5,3.5C36.6,34.1,35.1,35.7,33.1,35.7z M22.8,35.7c-1.9,0-3.5-1.5-3.5-3.5s1.5-3.5,3.5-3.5s3.5,1.5,3.5,3.5
		S24.7,35.7,22.8,35.7z M22.8,40c0-1.3,0.5-2.5,1.3-3.5h-3.9c-1.4,0-2.6,1.2-2.6,2.6v2.6h5.5C22.9,41.2,22.8,40.6,22.8,40z
		 M32.8,41.7h5.5v-2.6c0-1.4-1.2-2.6-2.6-2.6h-3.9C33.1,37.9,33.5,39.9,32.8,41.7L32.8,41.7z"/>
</g>
<g>
	<path class="st1" d="M67.6,37.4H55.5c-1,0-1.8-0.8-1.8-1.8v-8.7c0-1,0.8-1.8,1.8-1.8h12.1c1,0,1.8,0.8,1.8,1.8v8.7
		C69.4,36.6,68.6,37.4,67.6,37.4z"/>
</g>
<g>
	<path class="st1" d="M67.8,59.7H55.7c-1,0-1.8-0.8-1.8-1.8v-8.7c0-1,0.8-1.8,1.8-1.8h12.1c1,0,1.8,0.8,1.8,1.8v8.7
		C69.6,58.9,68.8,59.7,67.8,59.7z"/>
	<path class="st2" d="M56.7,47"/>
	<path class="st2" d="M61.7,47"/>
	<path class="st2" d="M66.5,24.6"/>
	<path class="st0" d="M56.5,24.6c0-2.9,2.2-5.2,5-5.2c2.5,0,5.1,2.7,4.9,4.5"/>
	<line class="st0" x1="56.5" y1="28.6" x2="56.5" y2="24.5"/>
	<path class="st0" d="M56.7,47.4c0-2.9,2.2-5.2,5-5.2c2.5,0,4.9,1.8,4.9,4.5"/>
	<line class="st0" x1="66.7" y1="50.7" x2="66.6" y2="46.5"/>
</g>
</svg>
