<?xml version="1.0" encoding="utf-8"?>
<!-- Generator: Adobe Illustrator 27.0.0, SVG Export Plug-In . SVG Version: 6.00 Build 0)  -->
<svg version="1.1" id="Layer_1" xmlns="http://www.w3.org/2000/svg" xmlns:xlink="http://www.w3.org/1999/xlink" x="0px" y="0px"
	 viewBox="0 0 80 80" style="enable-background:new 0 0 80 80;" xml:space="preserve">
<style type="text/css">
	.st0{fill:#020202;}
</style>
<g>
	<path class="st0" d="M63,38.4h-4.1v-4.1c0-1.1-0.9-2-2-2s-2,0.9-2,2v4.1h-4.1c-1.1,0-2,0.9-2,2s0.9,2,2,2h4.1v4.1c0,1.1,0.9,2,2,2
		s2-0.9,2-2v-4.1H63c1.1,0,2-0.9,2-2S64.1,38.4,63,38.4z"/>
	<circle class="st0" cx="34.4" cy="28.2" r="12.2"/>
	<path class="st0" d="M34.4,44.5C24.3,44.5,16,52.7,16,62.9c0,1.1,0.9,2,2,2h32.6c1.1,0,2-0.9,2-2C52.8,52.7,44.6,44.5,34.4,44.5z"
		/>
</g>
</svg>
