<?xml version="1.0" encoding="utf-8"?>
<!-- Generator: Adobe Illustrator 27.0.0, SVG Export Plug-In . SVG Version: 6.00 Build 0)  -->
<svg version="1.1" id="Layer_1" xmlns="http://www.w3.org/2000/svg" xmlns:xlink="http://www.w3.org/1999/xlink" x="0px" y="0px"
	 viewBox="0 0 80 80" style="enable-background:new 0 0 80 80;" xml:space="preserve">
<style type="text/css">
	.st0{fill:#020202;}
</style>
<path class="st0" d="M60,48c-2.2,0-4-1.8-4-4c0-2.2,1.8-4,4-4c2.2,0,4,1.8,4,4S62.2,48,60,48z M66,52c0-1.7-1.3-3-3-3h-6
	c-1.7,0-3,1.3-3,3v3H66V52z M66,39c-2.2,0-4-1.8-4-4c0-2.2,1.8-4,4-4s4,1.8,4,4C70.1,37.2,68.3,39,66,39z M54,39c-2.2,0-4-1.8-4-4
	c0-2.2,1.8-4,4-4c2.2,0,4,1.8,4,4S56.2,39,54,39z M54,44c0-1.5,0.5-2.9,1.5-4h-4.6c-1.7,0-3,1.3-3,3v3h6.4C54.1,45.4,54,44.7,54,44z
	 M65.7,46h6.4v-3c0-1.7-1.3-3-3-3h-4.6C66,41.6,66.4,43.9,65.7,46L65.7,46z M20.4,25.1c4.2,0,7.7,3.4,7.7,7.7s-3.4,7.7-7.7,7.7
	s-7.7-3.4-7.7-7.7S16.1,25.1,20.4,25.1z M20.4,43C14,43,8.9,48.1,8.9,54.5c0,0.7,0.6,1.3,1.3,1.3h20.4c0.7,0,1.3-0.6,1.3-1.3
	C31.8,48.1,26.7,43,20.4,43z M44.2,43.8h-3.9c-0.4,0-0.8-0.3-0.8-0.8l0,0c0-0.4,0.3-0.8,0.8-0.8h3.9c0.4,0,0.8,0.3,0.8,0.8l0,0
	C44.9,43.4,44.6,43.8,44.2,43.8z M38.1,43.8h-3.9c-0.4,0-0.8-0.3-0.8-0.8l0,0c0-0.4,0.3-0.8,0.8-0.8h3.9c0.4,0,0.8,0.3,0.8,0.8l0,0
	C38.9,43.4,38.5,43.8,38.1,43.8z"/>
</svg>
